<svg width="40" height="40" viewBox="0 0 40 40" fill="none" xmlns="http://www.w3.org/2000/svg">
<path fill-rule="evenodd" clip-rule="evenodd" d="M30.7345 19.5686C30.6461 29.5392 26.1042 30.6724 20.7957 30.6152C18.809 30.5939 15.8012 30.5985 13.7173 30.6052C12.4143 30.6094 11.358 29.5951 11.358 28.3363V13.4215C11.358 12.1627 12.4144 11.1421 13.7174 11.1421C13.7174 11.1421 21.1852 10.9944 22.2161 11.133C23.8261 11.3491 23.4794 14.1066 21.7638 14.2255C20.4577 14.3168 17.5664 14.2347 15.6043 14.3027C15.0835 14.3202 14.6612 14.7437 14.6612 15.2469V25.2091C14.6612 27.7159 14.3174 27.428 19.8519 27.4885C26.8709 27.5644 27.748 24.6922 27.6508 19.7171C27.6203 18.1542 30.7503 17.7949 30.7345 19.5686ZM24.5149 18.6194C24.152 19.0883 24.0166 20.6759 24.0166 20.7256C24.0166 21.2675 23.9295 21.9831 23.7591 22.3828C23.5846 22.7863 23.3428 23.1205 23.0258 23.3821C22.7087 23.647 22.3243 23.8473 21.8724 23.9779C21.5332 24.0759 20.0344 24.0897 18.9074 24.1051C18.0528 24.1168 17.9643 23.6666 17.9643 23.163V18.4412C17.9643 18.026 18.3717 17.6122 18.8827 17.5742C18.9077 17.5721 19.9833 17.5625 20.8774 17.5479C21.4838 17.5383 22.4149 17.3022 22.8982 16.9484C23.6307 16.4118 24.7016 15.5636 25.8062 14.6857C26.2768 14.3118 26.335 13.6255 26.1467 13.0648C26.0426 12.7547 25.9863 12.4234 25.9863 12.0796C25.9863 10.3173 27.4652 8.88908 29.2894 8.88908C31.1137 8.88908 32.5926 10.3173 32.5926 12.0796C32.5926 13.8416 31.1137 15.2702 29.2894 15.2702C29.0814 15.2702 28.8779 15.2519 28.6806 15.2164C28.0866 15.1092 27.339 15.2214 26.952 15.6779C26.0058 16.7931 25.0846 17.883 24.5149 18.6194ZM-4e-05 20C-4e-05 31.0458 8.95416 40 20 40C31.0458 40 40 31.0458 40 20C40 8.95416 31.0458 -4e-05 20 -4e-05C8.95416 -4e-05 -4e-05 8.95416 -4e-05 20Z" fill="#444444"/>
</svg>
