<svg xmlns="http://www.w3.org/2000/svg" width="40" height="40">
    <path fill-rule="evenodd" fill="#444" d="M30.734 19.568c-.088 9.971-4.63 11.104-9.939 11.047a573.05 573.05 0 0 0-7.078-.01c-1.303.004-2.359-1.01-2.359-2.269V13.421c0-1.259 1.056-2.279 2.359-2.279 0 0 7.468-.148 8.499-.01 1.61.217 1.263 2.974-.453 3.093-1.306.091-4.197.009-6.159.077.226.018-.943.441-.943.944v9.963c0 2.506-.344 2.218 5.19 2.279 7.019.076 7.896-2.796 7.799-7.771-.03-1.563 3.1-1.923 3.084-.149zm-6.22-.949c-.362 1.261-.354 2.056-.354 2.106 0 .542-.231 1.258-.401 1.657-.175.404-.417.738-.509 1-.542.265-.926.465-1.378.595-.339.773-1.532.913-2.965.128-.387.011-.943-.439-.943-.942v-4.722c0-.181.407-.829.918-.867.025-.002 1.101-.012 1.995-.027.606-.009 1.537-.245 2.021-.599.732-.537 1.803-1.385 2.908-2.263.47-.374.528-1.06.34-1.045.274-.886-.16-1.217-.16-.85 0-2.473 1.479-3.901 3.303-3.901 1.824 0 3.303 1.428 3.303 3.901 0 1.051-1.479 2.48-3.303 2.48.521 0-.412-.019-.609-.054.18-.107-1.341.005-1.729.461-.451 1.116-1.111 2.205-2.437 2.942zM0 19.999C0 31.45 8.954 40 19.999 40 31.45 40 40 31.45 40 19.999 40 8.954 31.45 0 19.999 0 8.954 0 0 8.954 0 19.999z"/>
</svg>
