<svg width="35" height="36" viewBox="0 0 35 36" fill="none" xmlns="http://www.w3.org/2000/svg">
<path fill-rule="evenodd" clip-rule="evenodd" d="M31.3484 17.6938C31.3739 14.7561 26.31 15.3506 26.3594 17.9404C26.5166 26.1836 25.0975 30.9418 13.7417 30.8157C4.7879 30.716 5.344 31.1934 5.344 27.0394C5.344 27.0394 5.344 14.8691 5.344 10.5341C5.344 9.70002 6.02717 8.99907 6.86973 8.96904C10.0441 8.8572 14.722 8.9928 16.8348 8.84219C19.6106 8.64442 20.1715 4.07656 17.5668 3.71815C15.8989 3.4887 3.81712 3.73359 3.81712 3.73359C1.70899 3.73359 -3.2e-05 5.42382 -3.2e-05 7.50998V32.2206C-3.2e-05 34.3063 1.7089 35.9869 3.81712 35.9798C7.18848 35.9685 12.0548 35.9611 15.2686 35.9965C23.8572 36.0912 31.2053 34.2145 31.3484 17.6938Z" fill="#525252"/>
<path opacity="0.48" fill-rule="evenodd" clip-rule="evenodd" d="M21.2859 16.1214C22.2076 14.9015 23.6979 13.0957 25.2287 11.2478C25.8549 10.4921 27.0645 10.3056 28.0253 10.4834C28.3446 10.5418 28.6739 10.5731 29.0104 10.5731C31.9618 10.5731 34.3544 8.2057 34.3544 5.28632C34.3544 2.36655 31.9618 0 29.0104 0C26.059 0 23.6663 2.36655 23.6663 5.28632C23.6663 5.85627 23.7575 6.40492 23.926 6.91855C24.2305 7.84729 24.1364 8.98469 23.3751 9.60427C21.5879 11.0583 19.8554 12.464 18.6703 13.3523C17.8884 13.9381 16.3821 14.3303 15.4009 14.3465C13.9545 14.3703 12.2143 14.3866 12.1739 14.3895C11.347 14.4525 10.688 15.1384 10.688 15.8269V23.6496C10.688 24.484 10.8312 25.2292 12.2139 25.2108C14.037 25.185 16.4619 25.162 17.0108 24.9997C17.7418 24.7832 18.3638 24.4519 18.8767 24.0126C19.3897 23.5795 19.7808 23.0254 20.063 22.3566C20.3387 21.694 20.4798 20.5091 20.4798 19.6112C20.4798 19.5286 20.6988 16.8988 21.2859 16.1214Z" fill="#A7A8A8"/>
</svg>
