<?xml version="1.0" standalone="no"?>
<!DOCTYPE svg PUBLIC "-//W3C//DTD SVG 20010904//EN"
 "http://www.w3.org/TR/2001/REC-SVG-20010904/DTD/svg10.dtd">
<svg version="1.0" xmlns="http://www.w3.org/2000/svg"
 width="147.000000pt" height="182.000000pt" viewBox="0 0 147.000000 182.000000"
 preserveAspectRatio="xMidYMid meet">

<g transform="translate(0.000000,182.000000) scale(0.100000,-0.100000)"
fill="#000000" stroke="none">
<path d="M16 1798 c-14 -20 -16 -121 -16 -890 0 -855 0 -868 20 -888 20 -20
33 -20 713 -20 583 0 696 2 713 14 19 14 19 36 22 887 2 771 1 875 -13 896
l-15 23 -705 0 -704 0 -15 -22z m1364 -888 l0 -820 -645 0 -645 0 0 820 0 820
645 0 645 0 0 -820z"/>
<path d="M260 1490 c-8 -14 -8 -26 0 -40 10 -20 21 -20 480 -20 459 0 470 0
480 20 8 14 8 26 0 40 -10 20 -21 20 -480 20 -459 0 -470 0 -480 -20z"/>
<path d="M266 1164 c-9 -8 -16 -17 -16 -19 0 -2 7 -11 16 -19 14 -14 70 -16
464 -16 394 0 450 2 464 16 20 19 20 19 0 38 -14 14 -70 16 -464 16 -394 0
-450 -2 -464 -16z"/>
<path d="M266 964 c-9 -8 -16 -17 -16 -19 0 -2 7 -11 16 -19 14 -14 70 -16
464 -16 394 0 450 2 464 16 20 19 20 19 0 38 -14 14 -70 16 -464 16 -394 0
-450 -2 -464 -16z"/>
<path d="M260 761 c-7 -15 -6 -23 6 -35 14 -14 70 -16 464 -16 394 0 450 2
464 16 20 19 20 19 0 38 -14 14 -70 16 -469 16 -439 0 -455 -1 -465 -19z"/>
<path d="M262 563 c-22 -43 -22 -43 462 -43 482 0 497 1 475 42 -9 17 -33 18
-469 18 -427 0 -460 -1 -468 -17z"/>
<path d="M261 362 c-22 -41 -7 -42 469 -42 476 0 491 1 469 42 -9 17 -33 18
-469 18 -436 0 -460 -1 -469 -18z"/>
</g>
</svg>
