<svg width="46" height="48" viewBox="0 0 46 48" fill="none" xmlns="http://www.w3.org/2000/svg">
<path fill-rule="evenodd" clip-rule="evenodd" d="M41.9749 23.5914C42.009 19.6744 35.2287 20.4672 35.2947 23.9202C35.5052 34.9111 33.6051 41.2553 18.3999 41.0873C6.41091 40.9543 7.15551 41.5908 7.15551 36.0521C7.15551 36.0521 7.15551 19.8252 7.15551 14.0451C7.15551 12.9331 8.07026 11.9985 9.19843 11.9584C13.4489 11.8093 19.7125 11.9901 22.5415 11.7893C26.2582 11.5256 27.0093 5.43516 23.5215 4.95728C21.2884 4.65135 5.11105 4.97787 5.11105 4.97787C2.28831 4.97787 -4.28474e-05 7.2315 -4.28474e-05 10.013V42.9604C-4.28474e-05 45.7413 2.28818 47.9822 5.11105 47.9727C9.62524 47.9577 16.1412 47.9477 20.4444 47.995C31.9444 48.1213 41.7834 45.619 41.9749 23.5914Z" fill="white"/>
<path opacity="0.48" fill-rule="evenodd" clip-rule="evenodd" d="M28.5015 21.4952C29.7356 19.8685 31.7311 17.4608 33.7809 14.997C34.6193 13.9895 36.239 13.7408 37.5254 13.9778C37.9529 14.0557 38.3938 14.0974 38.8444 14.0974C42.7963 14.0974 46 10.9409 46 7.0484C46 3.15538 42.7963 0 38.8444 0C34.8925 0 31.6889 3.15538 31.6889 7.0484C31.6889 7.80833 31.8109 8.53986 32.0365 9.2247C32.4443 10.463 32.3182 11.9795 31.2988 12.8056C28.9059 14.7444 26.586 16.6186 24.9992 17.803C23.9523 18.584 21.9354 19.1069 20.6216 19.1287C18.6849 19.1603 16.3548 19.182 16.3007 19.186C15.1934 19.27 14.3112 20.1845 14.3112 21.1024V31.5327C14.3112 32.6453 14.5028 33.6388 16.3542 33.6143C18.7954 33.5798 22.0423 33.5493 22.7772 33.3328C23.756 33.0441 24.5888 32.6024 25.2757 32.0166C25.9625 31.4392 26.4862 30.7004 26.864 29.8086C27.2332 28.9252 27.4221 27.3453 27.4221 26.1481C27.4221 26.038 27.7153 22.5316 28.5015 21.4952Z" fill="#8B8BA1"/>
</svg>
