<svg width="38" height="86" viewBox="0 0 38 86" fill="none" xmlns="http://www.w3.org/2000/svg">
<path d="M27 19C27 23.4183 23.4183 27 19 27C14.5817 27 11 23.4183 11 19C11 14.5817 14.5817 11 19 11C23.4183 11 27 14.5817 27 19Z" fill="black"/>
<path d="M18 62.5425H19.7754V64.6709H18V62.5425Z" fill="black"/>
<path d="M18 71.0557H19.7754V73.1844H18V71.0557Z" fill="black"/>
<path d="M18 66.7988H19.7754V68.9272H18V66.7988Z" fill="black"/>
<path d="M18 75.313H19.7754V77.4414H18V75.313Z" fill="black"/>
<path d="M18 83.8271H19.7754V85.9555H18V83.8271Z" fill="black"/>
<path d="M18 79.5703H19.7754V81.6987H18V79.5703Z" fill="black"/>
<path d="M18 54.0281H19.7754V56.1565H18V54.0281Z" fill="black"/>
<path d="M18 58.2854H19.7754V60.4138H18V58.2854Z" fill="black"/>
<path d="M18 41.2573H19.7754V43.3857H18V41.2573Z" fill="black"/>
<path d="M18 37H19.7754V39.1284H18V37Z" fill="black"/>
<path d="M18 49.7708H19.7754V51.8991H18V49.7708Z" fill="black"/>
<path d="M18 45.5139H19.7754V47.6427H18V45.5139Z" fill="black"/>
<path d="M32 19C32 26.1797 26.1797 32 19 32C11.8203 32 6 26.1797 6 19C6 11.8203 11.8203 6 19 6C26.1797 6 32 11.8203 32 19Z" stroke="#A7A7A7" stroke-miterlimit="10"/>
<path d="M37 19C37 28.9411 28.9411 37 19 37C9.05892 37 1 28.9411 1 19C1 9.05892 9.05892 1 19 1C28.9411 1 37 9.05892 37 19Z" stroke="#A7A7A7" stroke-miterlimit="10"/>
</svg>
