<svg width="697" height="697" viewBox="0 0 697 697" fill="none" xmlns="http://www.w3.org/2000/svg">
<path opacity="0.02" fill-rule="evenodd" clip-rule="evenodd" d="M535.55 340.978C534.009 514.723 454.866 534.464 362.364 533.473C327.749 533.1 275.337 533.176 239.025 533.295C216.32 533.369 197.914 515.693 197.914 493.759V233.866C197.914 211.933 216.32 194.152 239.026 194.152C239.026 194.152 369.152 191.582 387.116 193.993C415.17 197.76 409.129 245.803 379.233 247.882C356.476 249.467 306.094 248.04 271.904 249.22C262.828 249.531 255.471 256.908 255.471 265.68V439.268C255.471 482.953 249.481 477.934 345.918 478.981C468.224 480.31 483.508 430.262 481.816 343.57C481.284 316.334 535.824 310.076 535.55 340.978ZM427.172 324.444C420.848 332.617 418.49 360.279 418.49 361.143C418.49 370.587 416.97 383.054 414.001 390.02C410.962 397.052 406.749 402.879 401.225 407.433C395.699 412.053 389.001 415.536 381.127 417.813C375.216 419.524 349.099 419.767 329.462 420.034C314.57 420.235 313.029 412.391 313.029 403.618V321.343C313.029 314.103 320.126 306.889 329.032 306.229C329.467 306.197 348.209 306.026 363.789 305.775C374.357 305.605 390.581 301.486 399.001 295.321C411.765 285.976 430.425 271.195 449.673 255.901C457.873 249.386 458.887 237.425 455.607 227.658C453.792 222.251 452.811 216.481 452.811 210.488C452.811 179.781 478.58 154.889 510.368 154.889C542.157 154.889 567.926 179.781 567.926 210.488C567.926 241.195 542.157 266.086 510.368 266.086C506.743 266.086 503.198 265.763 499.759 265.143C489.41 263.279 476.383 265.236 469.638 273.184C453.151 292.618 437.099 311.613 427.172 324.444ZM0 348.5C0 540.974 156.026 697 348.5 697C540.974 697 697 540.974 697 348.5C697 156.026 540.974 0 348.5 0C156.026 0 0 156.026 0 348.5Z" fill="black"/>
</svg>
