<?xml version="1.0" standalone="no"?>
<!DOCTYPE svg PUBLIC "-//W3C//DTD SVG 20010904//EN"
 "http://www.w3.org/TR/2001/REC-SVG-20010904/DTD/svg10.dtd">
<svg version="1.0" xmlns="http://www.w3.org/2000/svg"
 width="201.000000pt" height="206.000000pt" viewBox="0 0 201.000000 206.000000"
 preserveAspectRatio="xMidYMid meet">

<g transform="translate(0.000000,206.000000) scale(0.100000,-0.100000)"
fill="#000000" stroke="none">
<path d="M1332 2040 c-103 -27 -166 -64 -248 -145 -149 -147 -199 -350 -134
-540 11 -32 20 -62 20 -66 0 -4 -46 -32 -103 -63 l-104 -55 -59 58 c-33 31
-87 71 -119 87 -55 27 -69 29 -170 29 -98 0 -116 -3 -167 -27 -71 -33 -151
-107 -189 -173 -16 -27 -36 -83 -45 -123 -14 -62 -14 -83 -4 -135 26 -139 106
-247 227 -308 64 -33 72 -34 177 -34 100 0 117 3 169 27 79 37 160 117 199
196 27 55 33 78 36 156 3 65 -1 104 -12 136 -19 54 -22 50 104 118 l95 50 55
-61 c69 -77 155 -133 248 -160 l74 -21 -7 -71 c-4 -38 -10 -73 -14 -76 -3 -3
-37 -11 -75 -18 -135 -24 -237 -100 -300 -224 -115 -226 1 -491 247 -569 146
-46 307 -1 414 115 202 220 113 566 -171 663 l-47 16 7 72 c3 39 9 74 13 78 3
3 39 11 78 17 140 21 233 70 325 170 67 72 103 139 128 237 25 97 25 151 1
246 -28 110 -65 174 -145 254 -80 80 -144 117 -254 145 -93 24 -156 23 -250
-1z m291 -90 c31 -12 82 -40 112 -63 224 -171 247 -491 48 -690 -178 -178
-447 -183 -632 -11 -148 137 -190 350 -104 532 33 71 140 179 208 212 113 55
256 62 368 20z m-1071 -707 c75 -33 149 -113 174 -185 23 -67 23 -157 -1 -228
-25 -76 -118 -169 -195 -196 -84 -28 -182 -25 -252 9 -66 32 -141 109 -171
175 -30 66 -30 188 0 254 24 53 90 128 138 158 88 54 205 59 307 13z m930
-520 c65 -30 133 -95 165 -162 38 -76 40 -200 5 -276 -29 -63 -92 -129 -157
-163 -44 -24 -61 -27 -145 -27 -83 0 -101 3 -145 27 -66 34 -119 87 -153 151
-24 46 -27 63 -27 147 0 83 3 101 27 145 26 51 94 121 139 146 82 44 207 49
291 12z"/>
<path d="M1400 1808 c-48 -25 -90 -89 -90 -138 0 -14 10 -46 23 -70 43 -87
148 -112 218 -53 89 75 75 214 -26 263 -53 25 -71 25 -125 -2z"/>
<path d="M1324 1489 c-70 -26 -129 -80 -150 -134 -16 -43 -16 -46 0 -64 62
-69 298 -100 451 -59 64 16 124 48 130 69 21 64 -77 168 -188 200 -25 7 -36 4
-68 -22 l-39 -31 -39 31 c-21 17 -40 31 -42 30 -2 0 -27 -9 -55 -20z"/>
<path d="M380 1183 c-54 -20 -89 -92 -70 -147 35 -107 172 -110 207 -3 29 87
-55 180 -137 150z"/>
<path d="M289 922 c-58 -30 -99 -80 -99 -119 0 -19 10 -29 48 -46 41 -19 64
-22 177 -22 115 0 135 3 172 22 53 29 57 35 39 76 -15 38 -62 77 -118 100 -36
15 -39 15 -67 -9 l-29 -24 -30 25 c-16 14 -32 25 -35 25 -3 0 -29 -13 -58 -28z"/>
<path d="M1304 664 c-59 -29 -81 -106 -47 -165 17 -29 67 -59 98 -59 29 0 74
30 90 60 31 60 10 137 -45 165 -36 19 -57 19 -96 -1z"/>
<path d="M1235 416 c-61 -28 -105 -77 -105 -116 0 -31 31 -51 110 -69 133 -31
330 7 330 64 0 39 -42 89 -102 118 l-56 29 -31 -23 -31 -23 -30 22 c-16 12
-30 22 -32 22 -2 0 -26 -11 -53 -24z"/>
</g>
</svg>
