<svg id="svg" xmlns="http://www.w3.org/2000/svg" xmlns:xlink="http://www.w3.org/1999/xlink" width="400" height="272.3618090452261" viewBox="0, 0, 400,272.3618090452261"><g id="svgg"><path id="path0" d="M18.977 1.382 C 10.257 4.512,3.988 10.710,1.164 18.994 C -0.512 23.914,-0.351 249.387,1.333 253.954 C 3.544 259.951,8.535 265.758,14.131 268.844 L 19.598 271.859 200.000 271.859 L 380.402 271.859 385.869 268.844 C 391.465 265.758,396.456 259.951,398.667 253.954 C 399.545 251.574,399.847 221.392,399.847 136.181 C 399.847 50.970,399.545 20.788,398.667 18.408 C 396.456 12.411,391.465 6.604,385.869 3.518 L 380.402 0.503 201.508 0.290 C 56.946 0.118,21.915 0.327,18.977 1.382 M373.246 19.849 C 354.651 44.248,252.751 174.032,248.238 179.063 C 221.908 208.418,178.092 208.418,151.762 179.063 C 147.249 174.032,45.349 44.248,26.754 19.849 L 23.882 16.080 200.000 16.080 L 376.118 16.080 373.246 19.849 M69.570 99.773 C 89.356 125.076,105.653 146.146,105.787 146.596 C 105.996 147.300,16.261 243.216,15.393 243.216 C 15.218 243.216,15.075 195.249,15.075 136.622 L 15.075 30.028 24.336 41.898 C 29.429 48.427,49.784 74.471,69.570 99.773 M384.682 190.027 L 384.422 243.370 347.236 203.929 C 326.784 182.236,306.334 160.554,301.792 155.746 L 293.534 147.005 337.853 90.337 C 362.228 59.169,382.678 32.870,383.297 31.894 C 384.559 29.904,385.140 96.189,384.682 190.027 M126.798 173.116 C 154.833 209.341,179.644 221.453,213.687 215.533 C 236.597 211.550,251.793 200.725,273.244 173.110 C 278.936 165.783,284.036 160.063,284.579 160.398 C 288.458 162.796,374.646 255.805,373.602 256.468 C 372.151 257.389,29.084 257.585,26.688 256.666 C 25.388 256.167,26.006 255.034,29.836 250.887 C 43.747 235.827,115.735 159.799,116.083 159.799 C 116.308 159.799,121.130 165.791,126.798 173.116 " stroke="none" fill="#000000" fill-rule="evenodd"></path></g></svg>