<svg width="568" height="568" viewBox="0 0 568 568" fill="none" xmlns="http://www.w3.org/2000/svg">
<path d="M274.825 109.39L274.207 452.294C280.275 452.294 307.668 482.664 313.379 482.664L313.379 297.929L313.379 109.39C313.379 71.3021 279.785 31.0435 246.744 12.0032C213.695 -7.04288 164.794 -1.98166 131.751 17.0644C98.7023 36.1047 78.3448 71.3035 78.3448 109.39L78.3448 546.417C81.1663 546.417 96.3382 546.961 113.473 546.96C113.473 546.96 113.617 235.488 113.473 141.131V109.39C113.473 77.4094 127.31 52.5923 156.69 42.0738C156.69 42.0738 199.147 25.5561 227.705 39.6734C255.449 55.6636 274.825 77.4094 274.825 109.39Z" fill="black"/>
<path d="M447.269 460.396C447.269 492.588 446.449 508.707 418.546 524.802C390.642 540.898 370.674 534.087 341.951 524.802C323.172 515.405 312.504 487.665 312.504 460.396L312.504 446.236V423.324C306.761 423.324 280.312 423.324 274.207 423.324V460.396C274.207 498.836 294.734 534.362 328.062 553.584C361.391 572.802 402.444 572.802 435.773 553.584C469.101 534.362 489.628 498.836 489.628 460.396L489.513 84.1478C492.502 84.1478 447.269 84.1478 447.269 84.1478V274.126L447.269 460.396Z" fill="black"/>
<path d="M519.034 0.00256348L421.1 0.00256348C393.68 0.00256348 372.138 23.1429 372.138 52.5927V157.777C372.138 187.229 393.682 210.372 421.105 210.372H519.034C546.453 210.372 568 187.232 568 157.777L567.998 52.5927C567.998 23.1411 546.452 0.00256348 519.034 0.00256348Z" fill="black"/>
<path d="M342.758 189.335H244.825C217.405 189.335 195.862 212.475 195.862 241.925V347.11C195.862 376.561 217.406 399.704 244.829 399.704H342.758C370.178 399.704 391.724 376.564 391.724 347.11L391.723 241.925C391.723 212.474 370.176 189.335 342.758 189.335Z" fill="black"/>
<path d="M146.896 357.631L48.9624 357.631C21.5425 357.631 7.96962e-05 380.771 7.96962e-05 410.221L7.96962e-05 515.405C7.96962e-05 544.857 21.5442 568 48.9666 568L146.896 568C174.315 568 195.862 544.86 195.862 515.405L195.861 410.221C195.861 380.769 174.314 357.631 146.896 357.631Z" fill="black"/>
</svg>
