<svg width="35" height="36" viewBox="0 0 35 36" fill="none" xmlns="http://www.w3.org/2000/svg">
<path fill-rule="evenodd" clip-rule="evenodd" d="M31.3484 17.6938C31.3739 14.7561 26.31 15.3506 26.3594 17.9404C26.5166 26.1836 25.0975 30.9418 13.7417 30.8157C4.7879 30.716 5.344 31.1934 5.344 27.0394C5.344 27.0394 5.344 14.8691 5.344 10.5341C5.344 9.70002 6.02717 8.99907 6.86973 8.96904C10.0441 8.8572 14.722 8.9928 16.8348 8.84219C19.6106 8.64442 20.1715 4.07656 17.5668 3.71815C15.8989 3.4887 3.81712 3.73359 3.81712 3.73359C1.70899 3.73359 -3.2e-05 5.42382 -3.2e-05 7.50998V32.2206C-3.2e-05 34.3063 1.7089 35.9869 3.81712 35.9798C7.18848 35.9685 12.0548 35.9611 15.2686 35.9965C23.8572 36.0912 31.2053 34.2145 31.3484 17.6938Z" fill="white"/>
<path opacity="0.48" fill-rule="evenodd" clip-rule="evenodd" d="M21.2859 16.1216C22.2076 14.9017 23.6979 13.0959 25.2288 11.248C25.855 10.4924 27.0645 10.3059 28.0253 10.4836C28.3446 10.542 28.6739 10.5733 29.0104 10.5733C31.9618 10.5733 34.3544 8.20591 34.3544 5.28653C34.3544 2.36675 31.9618 0.000208 29.0104 0.000208C26.059 0.000208 23.6664 2.36675 23.6664 5.28653C23.6664 5.85647 23.7575 6.40513 23.926 6.91876C24.2305 7.8475 24.1364 8.9849 23.3751 9.60448C21.5879 11.0585 19.8554 12.4642 18.6703 13.3525C17.8884 13.9383 16.3821 14.3305 15.4009 14.3467C13.9545 14.3705 12.2143 14.3868 12.1739 14.3897C11.347 14.4527 10.688 15.1387 10.688 15.8271V23.6498C10.688 24.4843 10.8312 25.2294 12.2139 25.2111C14.0371 25.1852 16.462 25.1623 17.0108 24.9999C17.7418 24.7834 18.3638 24.4521 18.8767 24.0128C19.3897 23.5797 19.7808 23.0256 20.063 22.3568C20.3387 21.6942 20.4798 20.5093 20.4798 19.6114C20.4798 19.5288 20.6988 16.899 21.2859 16.1216Z" fill="#8A8A9E"/>
</svg>
