<svg width="1204" height="831" viewBox="0 0 1204 831" fill="none" xmlns="http://www.w3.org/2000/svg">
<g style="mix-blend-mode:lighten" opacity="0.05">
<path fill-rule="evenodd" clip-rule="evenodd" d="M999.094 334.999C1115.33 321.941 1204 252.15 1204 168.517C1204 75.8653 1095.28 0 959.747 0C834.731 0 732.093 64.4607 717.116 147.693C717.116 147.693 653.78 316.511 592.645 362.834C531.508 409.157 204.908 496.001 204.908 496.001C88.6722 509.059 0 578.85 0 662.483C0 755.136 108.721 831 244.254 831C369.268 831 448.417 745.993 486.884 683.307C486.884 683.307 621.03 464.136 682.167 417.813C743.304 371.49 999.094 334.999 999.094 334.999Z" fill="white"/>
</g>
</svg>
