<svg width="1185" height="831" viewBox="0 0 1185 831" fill="none" xmlns="http://www.w3.org/2000/svg">
<g style="mix-blend-mode:lighten" opacity="0.09">
<path fill-rule="evenodd" clip-rule="evenodd" d="M899.218 361.718C1002.9 350.074 1082 287.842 1082 213.266C1082 130.649 985.018 63 864.12 63C752.602 63 661.047 120.479 647.686 194.697C647.686 194.697 591.19 345.232 536.655 386.538C482.119 427.844 190.783 505.282 190.783 505.282C87.098 516.926 8 579.158 8 653.734C8 736.353 104.982 804 225.881 804C337.397 804 407.999 728.2 442.314 672.303C442.314 672.303 561.976 476.869 616.511 435.563C671.047 394.257 899.218 361.718 899.218 361.718Z" fill="white"/>
</g>
<g style="mix-blend-mode:lighten" opacity="0.05">
<path fill-rule="evenodd" clip-rule="evenodd" d="M999.094 334.999C1115.33 321.941 1204 252.15 1204 168.517C1204 75.8653 1095.28 0 959.747 0C834.731 0 732.093 64.4607 717.116 147.693C717.116 147.693 653.78 316.511 592.645 362.834C531.508 409.157 204.908 496.001 204.908 496.001C88.6722 509.059 0 578.85 0 662.483C0 755.136 108.721 831 244.254 831C369.268 831 448.417 745.993 486.884 683.307C486.884 683.307 621.03 464.136 682.167 417.814C743.304 371.49 999.094 334.999 999.094 334.999Z" fill="white"/>
</g>
</svg>
